#!OML:ASF C:\ViconDB\ViconDB\414\Spring2016\041811\Spring2016.ASF
:FULLY-SPECIFIED
:DEGREES
486
root 8.405 17.4063 -40.4209 -174.134 -10.3094 -185.279
lowerback -4.77281 -2.35336 0.614233
upperback -1.95012 -3.30979 2.40528
thorax 0.776729 -1.70143 1.94459
lowerneck -14.5722 6.85183 0.569716
upperneck 30.0528 8.67668 -1.56528
head 12.4557 3.06886 0.456296
rclavicle 4.1313e-014 6.83819e-014
rhumerus -85.8073 32.1709 -114.47
rradius 93.6042
rwrist 28.6778
rhand -41.8141 -0.302382
rfingers 7.12502
rthumb -14.716 -29.7601
lclavicle 4.1313e-014 6.83819e-014
lhumerus -87.2063 -40.6837 122.9
lradius 74.3805
lwrist -23.3597
lhand -41.5712 -2.90366
lfingers 7.12502
lthumb -14.482 26.571
rfemur 374.808 -574.883 29.8585
rtibia 34.7026
rfoot -427.358 -62.7691
rtoes 1.90038e-013
lfemur 9.12718 -4.75497 -31.1427
ltibia 28.2359
lfoot -8.75311 -19.839
ltoes -3.40319e-013
487
root 8.37861 17.4452 -40.687 -175.04 -9.94154 -184.518
lowerback -4.55859 -2.2076 1.22441
upperback -1.68769 -3.13981 2.44826
thorax 0.891837 -1.61619 1.65986
lowerneck -14.5758 6.58387 0.302163
upperneck 30.4982 8.10836 -0.946046
head 12.5812 2.83094 0.648256
rclavicle 4.82177e-014 1.59028e-015
rhumerus -86.04 32.3189 -114.633
rradius 93.8858
rwrist 28.4544
rhand -41.7096 -0.298706
rfingers 7.12502
rthumb -14.6154 -29.7637
lclavicle 4.82177e-014 1.59028e-015
lhumerus -87.5208 -40.6595 123.308
lradius 74.2183
lwrist -23.3134
lhand -42.09 -2.68212
lfingers 7.12502
lthumb -14.9818 26.7559
rfemur 372.142 -575.057 29.6375
rtibia 35.52
rfoot -427.311 -62.5049
rtoes 1.19271e-013
lfemur 9.1489 -3.20716 -29.708
ltibia 30.3744
lfoot -5.54147 -20.7969
ltoes -6.99722e-014
488
root 8.37494 17.4989 -40.9202 -175.577 -10.2005 -183.667
lowerback -4.19112 -2.20476 1.69054
upperback -1.70426 -3.15317 2.56936
thorax 0.652181 -1.6278 1.54023
lowerneck -14.6056 6.27153 0.0680415
upperneck 31.1003 7.42365 -0.283896
head 12.7839 2.53782 0.837015
rclavicle 2.13197e-014 -1.74931e-014
rhumerus -86.1969 32.2797 -114.665
rradius 94.0777
rwrist 28.197
rhand -41.4093 -0.231526
rfingers 7.12502
rthumb -14.326 -29.7173
lclavicle 2.13197e-014 -1.74931e-014
lhumerus -87.9756 -40.8226 123.952
lradius 73.9751
lwrist -23.4096
lhand -42.3628 -2.38063
lfingers 7.12502
lthumb -15.2446 27.0376
rfemur 370.103 -575.2 29.6503
rtibia 36.1603
rfoot -426.391 -62.093
rtoes 2.3059e-013
lfemur 8.32375 -2.00727 -27.8384
ltibia 32.877
lfoot -1.67604 -21.7713
ltoes -7.31528e-014
489
root 8.37446 17.5371 -41.155 -175.923 -10.3588 -182.969
lowerback -4.08979 -2.18306 1.93139
upperback -1.71653 -3.13939 2.68614
thorax 0.576669 -1.62536 1.5313
lowerneck -14.788 5.9433 -0.42533
upperneck 31.7872 6.71999 0.557084
head 13.0447 2.22526 1.14346
rclavicle 1.63003e-014 9.54166e-015
rhumerus -86.3095 32.2864 -114.565
rradius 94.2606
rwrist 28.142
rhand -41.0966 -0.117493
rfingers 7.12502
rthumb -14.0247 -29.6243
lclavicle 1.63003e-014 9.54166e-015
lhumerus -88.3452 -41.1066 124.62
lradius 73.8315
lwrist -23.3561
lhand -42.8374 -2.36437
lfingers 7.12502
lthumb -15.7018 27.0186
rfemur 368.4 -575.416 29.7771
rtibia 36.7282
rfoot -425.948 -61.524
rtoes 8.34896e-014
lfemur 7.00735 -0.837083 -26.1085
ltibia 35.7842
lfoot 2.37579 -22.4232
ltoes -7.95139e-014
490
root 8.38659 17.5928 -41.3605 -176.234 -10.6767 -181.974
lowerback -3.68544 -2.1971 2.35711
upperback -1.85305 -3.16972 2.85162
thorax 0.197848 -1.65096 1.48486
lowerneck -14.8221 5.61137 -0.71779
upperneck 32.3061 5.97932 1.28064
head 13.2328 1.91463 1.36244
rclavicle 2.6985e-014 -4.92986e-014
rhumerus -86.4597 32.316 -114.639
rradius 94.338
rwrist 28.0737
rhand -40.9593 -0.220375
rfingers 7.12502
rthumb -13.8924 -29.7363
lclavicle 2.6985e-014 -4.92986e-014
lhumerus -88.7685 -41.3979 125.144
lradius 73.8703
lwrist -23.0518
lhand -42.8673 -2.54449
lfingers 7.12502
lthumb -15.7306 26.8362
rfemur 366.919 -574.989 30.0265
rtibia 37.0441
rfoot -424.178 -60.9396
rtoes -1.28812e-013
lfemur 5.10233 -0.0623713 -24.0143
ltibia 39.336
lfoot 6.02266 -22.6581
ltoes -2.8625e-014
491
root 8.39673 17.638 -41.5662 -176.478 -11.0134 -181.281
lowerback -3.38182 -2.179 2.55843
upperback -1.98418 -3.14065 2.8812
thorax -0.115645 -1.6429 1.42196
lowerneck -14.7643 5.20711 -1.09469
upperneck 32.6708 5.15205 2.0129
head 13.3453 1.56593 1.58407
rclavicle 2.5519e-014 2.38542e-014
rhumerus -86.6017 32.2449 -114.666
rradius 94.4242
rwrist 27.8035
rhand -40.6955 -0.0873013
rfingers 7.12502
rthumb -13.6382 -29.6205
lclavicle 2.5519e-014 2.38542e-014
lhumerus -89.1259 -41.7518 125.559
lradius 73.892
lwrist -23.1132
lhand -43.0239 -2.85282
lfingers 7.12502
lthumb -15.8814 26.5159
rfemur 365.519 -574.841 30.0869
rtibia 37.3658
rfoot -422.888 -60.4331
rtoes -1.11319e-014
lfemur 3.02896 0.49258 -22.4016
ltibia 43.0798
lfoot 9.19793 -22.396
ltoes -1.27222e-014
492
root 8.43241 17.6805 -41.7375 -176.299 -12.2489 -180.541
lowerback -3.08838 -2.49076 2.45468
upperback -2.34681 -3.54374 2.9981
thorax -0.635851 -1.85396 1.61458
lowerneck -14.5484 4.89832 -1.27988
upperneck 32.798 4.41161 2.783
head 13.3369 1.29962 1.79659
rclavicle -9.44227e-016 4.45278e-014
rhumerus -86.7609 32.2151 -114.83
rradius 94.3833
rwrist 27.6031
rhand -40.3462 -0.020627
rfingers 7.12502
rthumb -13.3015 -29.5761
lclavicle -9.44227e-016 4.45278e-014
lhumerus -89.3895 -42.0805 125.838
lradius 73.755
lwrist -23.7565
lhand -43.4579 -2.60304
lfingers 7.12502
lthumb -16.2993 26.7319
rfemur 364.938 -575.063 30.5696
rtibia 37.5597
rfoot -421.171 -59.848
rtoes 1.68569e-013
lfemur 0.0489961 -0.0161099 -20.6602
ltibia 47.0329
lfoot 12.5102 -21.8159
ltoes -2.44903e-013
493
root 8.43745 17.723 -41.9368 -176.403 -12.5661 -179.877
lowerback -3.09265 -2.49521 2.56751
upperback -2.35274 -3.5571 3.05283
thorax -0.642773 -1.86373 1.60775
lowerneck -14.5727 4.57165 -1.65399
upperneck 32.9051 3.71395 3.59705
head 13.3734 1.04319 2.0755
rclavicle 9.24349e-015 -2.22639e-014
rhumerus -86.7585 32.4211 -114.885
rradius 94.2901
rwrist 27.185
rhand -40.2305 -0.292382
rfingers 7.12502
rthumb -13.19 -29.8551
lclavicle 9.24349e-015 -2.22639e-014
lhumerus -89.2177 -42.45 125.877
lradius 73.7477
lwrist -23.934
lhand -43.5294 -2.78992
lfingers 7.12502
lthumb -16.3682 26.5394
rfemur 364.074 -575.858 31.2315
rtibia 37.8019
rfoot -421.608 -59.2752
rtoes -2.62396e-014
lfemur -2.51612 0.24414 -19.2655
ltibia 50.858
lfoot 15.0977 -21.2132
ltoes -1.08139e-013
494
root 8.44223 17.7614 -42.1404 -176.634 -12.7266 -179.017
lowerback -3.12015 -2.45596 2.85739
upperback -2.27911 -3.52211 3.1429
thorax -0.563784 -1.85086 1.53613
lowerneck -14.5739 4.24755 -2.02176
upperneck 32.8261 3.04997 4.40663
head 13.3347 0.81443 2.35504
rclavicle -3.00662e-015 -4.45278e-014
rhumerus -86.6976 32.6713 -115.025
rradius 93.9338
rwrist 27.0909
rhand -40.1349 -0.299131
rfingers 7.12502
rthumb -13.0979 -29.8678
lclavicle -3.00662e-015 -4.45278e-014
lhumerus -88.9189 -42.9385 125.807
lradius 73.6903
lwrist -24.1937
lhand -43.673 -3.1262
lfingers 7.12502
lthumb -16.5064 26.1917
rfemur 363.165 -576.867 32.1956
rtibia 38.025
rfoot -422.515 -58.7146
rtoes 2.78299e-014
lfemur -5.0121 0.493018 -17.7531
ltibia 54.5645
lfoot 16.7859 -20.697
ltoes 1.78111e-013
495
root 8.44785 17.794 -42.334 -176.926 -12.8802 -178.493
lowerback -2.89575 -2.39723 2.80499
upperback -2.2216 -3.42596 3.09448
thorax -0.630608 -1.79941 1.52729
lowerneck -14.3993 3.86877 -2.28103
upperneck 32.6271 2.31338 5.09387
head 13.2261 0.549346 2.54986
rclavicle -3.39425e-014 7.15625e-015
rhumerus -86.8438 32.8439 -115.315
rradius 93.7213
rwrist 26.5971
rhand -40.0061 -0.0022327
rfingers 7.12502
rthumb -12.9736 -29.5789
lclavicle -3.39425e-014 7.15625e-015
lhumerus -88.7105 -43.3479 125.793
lradius 73.695
lwrist -24.0287
lhand -43.4869 -3.28894
lfingers 7.12502
lthumb -16.3272 26.0437
rfemur 362.146 -578.094 32.7396
rtibia 38.2551
rfoot -423.672 -58.2558
rtoes -8.0309e-014
lfemur -7.36442 0.58171 -16.6477
ltibia 58.0577
lfoot 16.543 -20.4514
ltoes 4.10292e-013
496
root 8.45061 17.8238 -42.5362 -177.083 -13.1704 -177.903
lowerback -3.06798 -2.38984 2.794
upperback -2.09325 -3.4258 3.10168
thorax -0.401417 -1.79566 1.52768
lowerneck -14.2998 3.49686 -2.75868
upperneck 32.3471 1.6105 5.98038
head 13.1 0.30435 2.86762
rclavicle -1.61264e-014 1.98785e-014
rhumerus -86.9575 33.1806 -115.642
rradius 93.378
rwrist 26.2943
rhand -40.3609 -0.463658
rfingers 7.12502
rthumb -13.3157 -30.0182
lclavicle -1.61264e-014 1.98785e-014
lhumerus -88.2659 -43.5701 125.601
lradius 73.872
lwrist -22.9521
lhand -42.792 -4.30858
lfingers 7.12502
lthumb -15.658 25.0778
rfemur 361.465 -579.89 33.6654
rtibia 38.4402
rfoot -425.502 -57.6686
rtoes -1.36764e-013
lfemur -9.85673 0.594019 -15.5023
ltibia 61.3554
lfoot 15.0708 -20.2723
ltoes -1.08139e-013
497
root 8.45591 17.8485 -42.7253 -177.424 -13.3225 -177.281
lowerback -2.87441 -2.32905 2.81988
upperback -1.9567 -3.33487 3.10436
thorax -0.371283 -1.74698 1.52338
lowerneck -14.1986 3.14632 -3.03684
upperneck 32.0707 0.940202 6.69485
head 12.9915 0.072186 3.08822
rclavicle 8.94531e-015 -4.85035e-014
rhumerus -87.057 33.4258 -115.987
rradius 92.9873
rwrist 25.9631
rhand -40.6156 -0.614098
rfingers 7.12502
rthumb -13.5612 -30.1525
lclavicle 8.94531e-015 -4.85035e-014
lhumerus -87.7785 -43.7466 125.383
lradius 73.9428
lwrist -22.3274
lhand -42.4435 -5.04414
lfingers 7.12502
lthumb -15.3223 24.3682
rfemur 360.487 -581.252 34.2803
rtibia 38.5992
rfoot -426.825 -57.1063
rtoes 1.26427e-013
lfemur -12.2258 0.787861 -14.3478
ltibia 64.3908
lfoot 13.6025 -19.9626
ltoes 9.85972e-014
498
root 8.46378 17.8699 -42.912 -177.938 -13.4009 -176.391
lowerback -2.47842 -2.1921 3.1648
upperback -1.85126 -3.13971 3.08396
thorax -0.505295 -1.65157 1.33064
lowerneck -13.9084 2.7443 -3.39097
upperneck 31.6975 0.13413 7.61722
head 12.8198 -0.213437 3.37625
rclavicle 5.29016e-014 -1.98785e-014
rhumerus -87.3065 33.455 -116.46
rradius 92.6723
rwrist 25.7817
rhand -40.9075 -0.844356
rfingers 7.12502
rthumb -13.8425 -30.3637
lclavicle 5.29016e-014 -1.98785e-014
lhumerus -87.6291 -43.9642 125.258
lradius 73.7885
lwrist -23.1026
lhand -42.7916 -4.76149
lfingers 7.12502
lthumb -15.6577 24.6249
rfemur 359.41 -582.711 35.1073
rtibia 38.6976
rfoot -428.328 -56.5734
rtoes 2.21049e-013
lfemur -14.4502 1.03537 -12.9502
ltibia 67.0664
lfoot 12.4748 -18.9074
ltoes -3.84847e-013
499
root 8.47347 17.8857 -43.0981 -178.445 -13.5473 -175.657
lowerback -2.10618 -2.10083 3.23874
upperback -1.69381 -3.00226 3.13742
thorax -0.552876 -1.58132 1.35877
lowerneck -13.7836 2.36797 -3.87518
upperneck 31.4626 -0.593299 8.50726
head 12.748 -0.488682 3.69513
rclavicle 3.35946e-014 1.47101e-014
rhumerus -87.5053 33.6416 -116.662
rradius 92.2549
rwrist 26.5323
rhand -41.5053 -1.08363
rfingers 7.12502
rthumb -14.4185 -30.5628
lclavicle 3.35946e-014 1.47101e-014
lhumerus -87.2395 -44.0483 125.13
lradius 73.583
lwrist -23.7046
lhand -43.2233 -4.74608
lfingers 7.12502
lthumb -16.0734 24.6073
rfemur 358.34 -584.34 35.7524
rtibia 38.7733
rfoot -429.829 -56.0539
rtoes 5.08889e-014
lfemur -16.6788 1.15238 -11.798
ltibia 69.3478
lfoot 11.3391 -17.8865
ltoes -1.81292e-013
